{"title":"A.Nightmare.on.Elm.Street.2010.Cam.XviD-TA","uid":5530706,"size":937411636,"categoryP":"video","categoryS":"movies","magnet":"?xt=urn:btih:9b8a7b7c5ae8ad91aee4b4a1a0aa910015ed4cf7&amp;dn=A.Nightmare.on.Elm.Street.2010.Cam.XviD-TA&amp;tr=udp%3A%2F%2Ftracker.openbittorrent.com%3A80&amp;tr=udp%3A%2F%2Fopen.demonii.com%3A1337&amp;tr=udp%3A%2F%2Ftracker.coppersurfer.tk%3A6969&amp;tr=udp%3A%2F%2Fexodus.desync.com%3A6969","seeders":1,"leechers":0,"uploader":".BONE.","files":2,"time":1272915794,"description":"\n\nDownload this torrent (magnet link)\nAdd this torrent to personal RSS\n\n &lt;a href=&quot; http://www.imdb.com/title/tt1179056/&quot; rel=&quot;nofollow&quot; target=&quot;_NEW&quot;&gt; http://www.imdb.com/title/tt1179056/&lt;/a&gt;\n\nPlot\nA re-imagining of the horror icon Freddy Krueger, a serial-killer who wields a glove with four blades embedded in the fingers and kills people in their dreams, resulting in their real death in reality.\n\nSource :p2p\nGeneral\nComplete name : A.Nightmare.on.Elm.Street.2010.Cam.XviD-TA.avi\nFormat : AVI\nFormat/Info : Audio Video Interleave\nFile size : 894 MiB\nDuration : 1h 32mn\nOverall bit rate : 1 348 Kbps\nWriting library : VirtualDub build 32661/release\n\nVideo\nID : 0\nFormat : MPEG-4 Visual\nFormat profile : AdvancedSimple@L5\nFormat settings, BVOP : Yes\nFormat settings, QPel : No\nFormat settings, GMC : No warppoints\nFormat settings, Matrix : Default (H.263)\nCodec ID : XVID\nCodec ID/Hint : XviD\nDuration : 1h 32mn\nBit rate : 1 175 Kbps\nWidth : 640 pixels\nHeight : 352 pixels\nDisplay aspect ratio : 16:9\nFrame rate : 29.970 fps\nResolution : 24 bits\nColorimetry : 4:2:0\nScan type : Progressive\nBits/(Pixel*Frame) : 0.174\nStream size : 779 MiB (87%)\nWriting library : XviD 1.2.1 (UTC 2008-12-04)\n\n\nAudio\nID : 1\nFormat : MPEG Audio\nFormat version : Version 1\nFormat profile : Layer 3\nCodec ID : 55\nCodec ID/Hint : MP3\nDuration : 1h 32mn\nBit rate mode : Constant\nBit rate : 160 Kbps\nChannel(s) : 2 channels\nSampling rate : 44.1 KHz\nResolution : 16 bits\nVideo delay : 33ms\nStream size : 106 MiB (12%)\nAlignment : Aligned on interleaves\nInterleave, duration : 26 ms (0.78 video frame)\nInterleave, preload duration : 809 ms\n\t\t\n\n","torrent":{"xt":"urn:btih:9b8a7b7c5ae8ad91aee4b4a1a0aa910015ed4cf7","amp;dn":"A.Nightmare.on.Elm.Street.2010.Cam.XviD-TA","amp;tr":["udp%3A%2F%2Ftracker.openbittorrent.com%3A80","udp%3A%2F%2Fopen.demonii.com%3A1337","udp%3A%2F%2Ftracker.coppersurfer.tk%3A6969","udp%3A%2F%2Fexodus.desync.com%3A6969"],"infoHash":"9b8a7b7c5ae8ad91aee4b4a1a0aa910015ed4cf7","infoHashBuffer":{"type":"Buffer","data":[155,138,123,124,90,232,173,145,174,228,180,161,160,170,145,0,21,237,76,247]},"announce":[],"urlList":[]}}